<svg width="117" height="30" viewBox="0 0 117 30" fill="none" xmlns="http://www.w3.org/2000/svg">
<g clip-path="url(#clip0_1264_541)">
<path d="M42.9542 14.1656C42.979 14.9491 42.8698 15.7312 42.6313 16.4779C42.4081 17.1375 42.052 17.7442 41.5849 18.2606C41.1304 18.7555 40.5755 19.1475 39.9572 19.4104C38.6165 19.9616 37.1124 19.9616 35.7717 19.4104C35.1592 19.1438 34.6092 18.7522 34.1569 18.2606C33.6901 17.7418 33.3301 17.136 33.0977 16.4779C32.8416 15.7342 32.7149 14.9521 32.723 14.1656C32.7149 13.3833 32.8416 12.6054 33.0977 11.8661C33.3321 11.2099 33.6968 10.608 34.1699 10.0963C34.6251 9.60559 35.1801 9.21797 35.7976 8.95955C36.4517 8.68563 37.1553 8.54931 37.8645 8.55908C38.5778 8.54938 39.2856 8.68566 39.9443 8.95955C40.5618 9.21797 41.1168 9.60559 41.572 10.0963C42.0363 10.6122 42.3961 11.2132 42.6313 11.8661C42.8769 12.6068 42.9864 13.3859 42.9542 14.1656ZM40.3706 14.1656C40.4309 13.2527 40.1904 12.3452 39.6859 11.5819C39.4595 11.2823 39.1667 11.0392 38.8305 10.8718C38.4942 10.7045 38.1238 10.6174 37.7482 10.6174C37.3726 10.6174 37.0022 10.7045 36.6659 10.8718C36.3297 11.0392 36.0369 11.2823 35.8105 11.5819C35.3006 12.3428 35.0596 13.2521 35.1258 14.1656C35.0646 15.0786 35.3051 15.9864 35.8105 16.7492C36.0353 17.0512 36.3276 17.2965 36.664 17.4654C37.0004 17.6344 37.3717 17.7224 37.7482 17.7224C38.1247 17.7224 38.496 17.6344 38.8324 17.4654C39.1688 17.2965 39.4611 17.0512 39.6859 16.7492C40.1989 15.9883 40.4526 15.0822 40.4093 14.1656H40.3706Z" fill="white"/>
<path d="M50.8609 12.7979C50.5509 13.9993 50.2021 15.1749 49.8533 16.3117C49.5045 17.4485 49.1299 18.5207 48.7682 19.5283H46.74C46.4687 18.9082 46.1845 18.2365 45.8745 17.3839C45.5644 16.5313 45.2802 15.7174 44.9831 14.8002C44.686 13.883 44.376 12.9271 44.0789 11.9195C43.7817 10.9119 43.4846 9.8784 43.1875 8.83203H45.7711C45.9003 9.40043 46.0424 10.0205 46.2104 10.6793C46.3783 11.3382 46.5462 11.9711 46.7271 12.7075C46.9079 13.4438 47.0888 14.0639 47.2826 14.7227C47.4763 15.3816 47.6572 16.0145 47.851 16.5313C48.0577 15.8983 48.2643 15.2395 48.4581 14.5806C48.6519 13.9218 48.8457 13.2888 49.0265 12.5783C49.2074 11.8678 49.3624 11.2865 49.5303 10.6147C49.6983 9.94299 49.8274 9.32292 49.9437 8.83203H51.8427C51.9719 9.38751 52.101 9.98175 52.2561 10.6147C52.4111 11.2477 52.5661 11.9066 52.734 12.5783C52.902 13.2501 53.0957 13.8701 53.2895 14.5806C53.4833 15.2911 53.69 15.8724 53.8967 16.5313C54.0646 15.9758 54.2584 15.3816 54.4392 14.7227C54.6201 14.0639 54.8268 13.4309 55.0076 12.7075C55.1885 11.9841 55.3694 11.3382 55.5373 10.6793C55.7052 10.0205 55.8473 9.38751 55.9636 8.83203H58.5472C58.263 9.8784 57.9659 10.9119 57.6688 11.9195C57.3717 12.9271 57.0875 13.896 56.842 14.8261C56.5966 15.7562 56.2478 16.6088 55.9377 17.4097C55.6277 18.2106 55.3564 18.9341 55.0593 19.5541H52.9666C52.6221 18.5465 52.2604 17.4743 51.8814 16.3375C51.5197 15.1749 51.1709 13.9993 50.8609 12.7979Z" fill="white"/>
<path d="M59.6055 9.18084C60.2163 9.01056 60.8377 8.88109 61.4657 8.79329C62.32 8.65672 63.1842 8.5919 64.0493 8.59952C64.7934 8.58078 65.5342 8.70352 66.2325 8.96123C66.7813 9.16933 67.2665 9.51657 67.6406 9.96885C68.0023 10.4219 68.2543 10.9524 68.3769 11.519C68.5145 12.1816 68.5752 12.8578 68.5578 13.5343V19.5412H66.0775V13.9089C66.0843 13.4155 66.0453 12.9225 65.9612 12.4362C65.9049 12.0888 65.7821 11.7554 65.5995 11.4544C65.4223 11.2208 65.1794 11.0454 64.9019 10.9506C64.5588 10.8246 64.1952 10.7633 63.8297 10.7698C63.5027 10.7509 63.1749 10.7509 62.8479 10.7698L62.0858 10.9506V19.58H59.6055V9.18084Z" fill="white"/>
<path d="M73.4404 17.7526C73.9483 17.7952 74.4588 17.7109 74.926 17.5072C75.0711 17.4322 75.1912 17.3164 75.2715 17.1741C75.3518 17.0319 75.3889 16.8693 75.3781 16.7063C75.3793 16.5314 75.3361 16.359 75.2525 16.2054C75.1689 16.0518 75.0477 15.9218 74.9002 15.8278C74.4046 15.5081 73.8708 15.252 73.3112 15.0657C72.8591 14.8977 72.4457 14.7298 72.0194 14.5489C71.67 14.3763 71.3443 14.1592 71.0506 13.903C70.7737 13.6558 70.5534 13.3517 70.4046 13.0117C70.237 12.6023 70.1577 12.162 70.1721 11.7199C70.1548 11.2739 70.2443 10.8302 70.433 10.4258C70.6217 10.0213 70.9043 9.6678 71.2572 9.39458C72.1144 8.78559 73.1527 8.48504 74.2026 8.54198C74.8057 8.54127 75.4074 8.60187 75.9982 8.72284C76.4377 8.79744 76.8699 8.90982 77.29 9.05871L76.8379 11.0739C76.5027 10.9352 76.1572 10.8229 75.8044 10.7381C75.3171 10.6278 74.8184 10.5758 74.3189 10.5831C73.8732 10.5561 73.4281 10.6451 73.027 10.8414C72.8806 10.9124 72.7583 11.025 72.6756 11.1652C72.5928 11.3054 72.5533 11.4669 72.562 11.6294C72.5557 11.7894 72.5867 11.9486 72.6524 12.0945C72.725 12.2493 72.8362 12.3827 72.9754 12.482C73.1594 12.6207 73.3588 12.7377 73.5696 12.8308C73.8596 12.9646 74.1572 13.0811 74.461 13.1796C74.972 13.3672 75.4722 13.5828 75.9595 13.8255C76.332 14.011 76.6722 14.2553 76.9671 14.5489C77.23 14.8024 77.433 15.1113 77.5613 15.4532C77.6871 15.8499 77.7482 16.2643 77.7422 16.6804C77.7739 17.1338 77.6855 17.5874 77.4859 17.9957C77.2864 18.404 76.9826 18.7523 76.6054 19.0057C75.6293 19.5906 74.4986 19.8654 73.3629 19.7937C72.5982 19.8135 71.8342 19.7354 71.0893 19.5612C70.5209 19.4062 70.1075 19.277 69.875 19.1866L70.3142 17.1067C70.7348 17.2812 71.1663 17.4279 71.606 17.546C72.2059 17.6945 72.8226 17.764 73.4404 17.7526V17.7526Z" fill="white"/>
<path d="M79.2949 19.5285V4.02666L81.7752 3.61328V8.90974C82.073 8.82576 82.3748 8.75678 82.6795 8.70305C83.0332 8.6373 83.392 8.60272 83.7517 8.5997C84.4831 8.5808 85.2113 8.70363 85.8961 8.96141C86.403 9.18597 86.8467 9.53205 87.1879 9.96903C87.538 10.4227 87.7849 10.9474 87.9114 11.5063C88.1018 12.167 88.2146 12.8476 88.2472 13.5344V19.5414H85.7669V13.9091C85.7737 13.4156 85.7348 12.9227 85.6507 12.4364C85.5904 12.086 85.4585 11.7517 85.2631 11.4546C85.0953 11.228 84.8669 11.0534 84.6043 10.9508C84.2618 10.8224 83.8978 10.761 83.5321 10.77C83.198 10.773 82.865 10.8076 82.5374 10.8733C82.2801 10.9189 82.0256 10.9793 81.7752 11.0542V19.5672L79.2949 19.5285Z" fill="white"/>
<path d="M93.9537 8.56062C94.6555 8.54239 95.3551 8.64732 96.0206 8.87066C96.5137 9.05283 96.9564 9.34947 97.3124 9.73617C97.6481 10.1046 97.8915 10.5473 98.0229 11.028C98.1715 11.5929 98.2454 12.1749 98.2425 12.759V19.2181C97.855 19.3085 97.2866 19.399 96.5115 19.5152C95.6559 19.6389 94.7923 19.6993 93.9279 19.6961C93.3374 19.6995 92.7484 19.6389 92.171 19.5152C91.6804 19.4078 91.2153 19.2059 90.8017 18.921C90.4256 18.6408 90.124 18.2726 89.9232 17.8488C89.7016 17.3401 89.5957 16.7886 89.6132 16.234C89.5957 15.696 89.7158 15.1625 89.962 14.6838C90.1979 14.2629 90.5354 13.9076 90.9438 13.6504C91.3757 13.3671 91.8581 13.1697 92.3648 13.0691C92.9169 12.9531 93.4799 12.8968 94.0441 12.9011C94.3323 12.8822 94.6215 12.8822 94.9096 12.9011C95.2318 12.9353 95.5511 12.9914 95.8656 13.0691V12.7849C95.8696 12.5066 95.8392 12.2289 95.7752 11.9581C95.7076 11.6977 95.5784 11.4573 95.3986 11.2573C95.2187 11.0572 94.9935 10.9032 94.7417 10.8084C94.4002 10.6959 94.0418 10.6435 93.6824 10.6534C93.1548 10.6502 92.6278 10.689 92.1064 10.7696C91.7127 10.837 91.3242 10.9319 90.9438 11.0538L90.6337 9.05151C91.0815 8.91001 91.5392 8.80206 92.0031 8.72856C92.6463 8.60939 93.2996 8.55314 93.9537 8.56062ZM94.1604 17.7971C94.7403 17.8145 95.3205 17.7712 95.8914 17.6679V14.9293L95.3101 14.8001C95.022 14.7796 94.7327 14.7796 94.4446 14.8001C94.1693 14.7808 93.8931 14.7808 93.6178 14.8001C93.3539 14.8404 93.0971 14.9187 92.8557 15.0326C92.6347 15.1335 92.4466 15.2947 92.3131 15.4977C92.1715 15.7166 92.0994 15.9733 92.1064 16.234C92.0771 16.4699 92.1135 16.7092 92.2115 16.9258C92.3095 17.1423 92.4654 17.3276 92.6619 17.4612C93.1225 17.7049 93.6399 17.8209 94.1604 17.7971V17.7971Z" fill="white"/>
<path d="M106.603 11.0525C106.397 10.9879 106.112 10.9233 105.751 10.8458C105.326 10.7604 104.892 10.7215 104.459 10.7295C104.169 10.731 103.879 10.757 103.593 10.807C103.374 10.842 103.158 10.8938 102.947 10.9621V19.5268H100.506V9.33437C101.094 9.13333 101.693 8.96938 102.301 8.84348C103.069 8.67365 103.854 8.59131 104.64 8.59804H105.221L105.867 8.67555L106.5 8.80473C106.666 8.8364 106.83 8.87957 106.991 8.93391L106.603 11.0525Z" fill="white"/>
<path d="M107.337 14.232C107.32 13.3856 107.465 12.5438 107.764 11.7517C108.01 11.0922 108.388 10.49 108.875 9.98189C109.327 9.51908 109.873 9.15798 110.476 8.92259C111.058 8.68277 111.682 8.55986 112.311 8.56089C112.95 8.52707 113.59 8.63192 114.185 8.86827C114.78 9.10462 115.318 9.46688 115.76 9.93021C116.686 11.0865 117.147 12.547 117.052 14.0253C117.052 14.1674 117.052 14.3224 117.052 14.4903C117.052 14.6583 117.052 14.8133 117.052 14.9554H109.895C109.909 15.3312 109.997 15.7005 110.154 16.042C110.312 16.3835 110.535 16.6904 110.812 16.9448C111.479 17.458 112.311 17.7105 113.15 17.6553C113.706 17.6559 114.26 17.5996 114.804 17.4874C115.207 17.412 115.601 17.2951 115.98 17.1386L116.264 19.1667C116.084 19.2521 115.898 19.3255 115.708 19.3863C115.463 19.4509 115.192 19.5284 114.882 19.5801C114.571 19.6318 114.249 19.6964 113.887 19.7351C113.525 19.7552 113.163 19.7552 112.802 19.7351C111.965 19.7499 111.133 19.6098 110.347 19.3217C109.701 19.0725 109.121 18.6787 108.65 18.1704C108.18 17.6621 107.833 17.0528 107.634 16.3893C107.426 15.6896 107.326 14.962 107.337 14.232V14.232ZM114.52 13.1339C114.526 12.8011 114.478 12.4695 114.378 12.1521C114.29 11.8622 114.15 11.5907 113.964 11.3512C113.771 11.1216 113.53 10.9377 113.258 10.8126C112.985 10.6875 112.688 10.6244 112.388 10.6278C112.06 10.6213 111.735 10.6874 111.436 10.8214C111.137 10.9554 110.871 11.154 110.657 11.4029C110.46 11.6432 110.303 11.9136 110.192 12.2038C110.086 12.5051 110.012 12.8169 109.973 13.1339H114.52Z" fill="white"/>
<path d="M28.5407 15.6538C28.4838 15.1792 28.2611 14.7399 27.9118 14.4135C27.5626 14.0872 27.1093 13.8946 26.6319 13.8699C26.1545 13.8452 25.6837 13.9899 25.3027 14.2784C24.9216 14.567 24.6547 14.9809 24.549 15.4471C24.4982 16.4985 24.2847 17.5357 23.916 18.5216C25.1951 18.8836 26.4332 19.3771 27.6106 19.9943C28.1421 18.6039 28.4558 17.1399 28.5407 15.6538Z" fill="#FFE254"/>
<path d="M23.8478 18.5195C23.2145 20.1835 22.1588 21.654 20.7848 22.7863C19.4108 23.9186 17.7657 24.6738 16.0113 24.9775C14.2569 25.2811 12.4537 25.1229 10.779 24.5184C9.1043 23.9138 7.61582 22.8837 6.45996 21.5295C6.10904 21.1487 5.62505 20.9177 5.10836 20.8842C4.59167 20.8508 4.08192 21.0175 3.68483 21.3498C3.28775 21.6821 3.0338 22.1544 2.97565 22.6689C2.9175 23.1834 3.05961 23.7006 3.37251 24.1131C4.98077 25.9977 7.05066 27.4325 9.3797 28.2773C11.7087 29.1221 14.2172 29.3478 16.6596 28.9325C19.1021 28.5172 21.3949 27.475 23.3138 25.9079C25.2328 24.3408 26.7121 22.3024 27.607 19.9922C26.4097 19.3695 25.1495 18.8758 23.8478 18.5195V18.5195Z" fill="#FFE254"/>
<path d="M4.91097 24.8766C6.03109 24.8766 6.93912 23.9686 6.93912 22.8485C6.93912 21.7283 6.03109 20.8203 4.91097 20.8203C3.79085 20.8203 2.88281 21.7283 2.88281 22.8485C2.88281 23.9686 3.79085 24.8766 4.91097 24.8766Z" fill="#D3AF17"/>
<path d="M10.9832 18.8063C12.1034 18.8063 13.0114 17.8983 13.0114 16.7782C13.0114 15.658 12.1034 14.75 10.9832 14.75C9.86311 14.75 8.95508 15.658 8.95508 16.7782C8.95508 17.8983 9.86311 18.8063 10.9832 18.8063Z" fill="#FFE254"/>
<path d="M17.0418 12.7321C18.1619 12.7321 19.07 11.8241 19.07 10.7039C19.07 9.58382 18.1619 8.67578 17.0418 8.67578C15.9217 8.67578 15.0137 9.58382 15.0137 10.7039C15.0137 11.8241 15.9217 12.7321 17.0418 12.7321Z" fill="#00A4FF"/>
<path d="M0.0015481 14.145C-0.0141387 14.4108 0.022993 14.6771 0.110798 14.9284C0.198603 15.1797 0.335341 15.4112 0.513112 15.6094C0.690883 15.8076 0.906163 15.9686 1.14652 16.0831C1.38687 16.1976 1.64753 16.2633 1.91344 16.2765C2.44644 16.3014 2.968 16.1166 3.3664 15.7617C3.7648 15.4067 4.00837 14.9099 4.04494 14.3776C4.10939 13.0998 4.41627 11.846 4.94921 10.683C3.72198 10.1275 2.46892 9.66243 1.29337 8.96484C0.54685 10.5971 0.108868 12.3534 0.0015481 14.145V14.145Z" fill="#40CEFF"/>
<path d="M25.1787 5.6682C23.8462 4.08764 22.185 2.81683 20.3108 1.94445C18.4366 1.07206 16.3947 0.61911 14.3274 0.617188C11.5862 0.625062 8.90402 1.4143 6.59541 2.89236C4.28679 4.37043 2.44742 6.47605 1.29297 8.96234C2.49436 9.63408 3.73451 10.125 4.97465 10.6675C5.69445 9.10268 6.79627 7.744 8.17873 6.71653C9.56118 5.68906 11.1799 5.0258 12.8858 4.7878C14.5917 4.54979 16.3301 4.74467 17.941 5.35452C19.5519 5.96437 20.9835 6.96959 22.1042 8.27767C22.2649 8.50576 22.4713 8.69797 22.7102 8.84214C22.9492 8.98631 23.2154 9.07928 23.4921 9.11518C23.7689 9.15107 24.05 9.12911 24.3178 9.05067C24.5856 8.97223 24.8342 8.83903 25.0479 8.6595C25.2615 8.47998 25.4355 8.25805 25.5589 8.00776C25.6823 7.75747 25.7523 7.48428 25.7646 7.20551C25.7769 6.92673 25.7312 6.64844 25.6304 6.38825C25.5295 6.12807 25.3757 5.89167 25.1787 5.69403V5.6682Z" fill="#40CEFF"/>
<path d="M23.6414 8.9899C24.7616 8.9899 25.6696 8.08187 25.6696 6.96175C25.6696 5.84163 24.7616 4.93359 23.6414 4.93359C22.5213 4.93359 21.6133 5.84163 21.6133 6.96175C21.6133 8.08187 22.5213 8.9899 23.6414 8.9899Z" fill="#00A4FF"/>
</g>
<defs>
<clipPath id="clip0_1264_541">
<rect width="117" height="28.575" fill="white" transform="translate(0 0.617188)"/>
</clipPath>
</defs>
</svg>
