<?xml version="1.0" encoding="utf-8"?>
<!-- Generator: Adobe Illustrator 16.0.0, SVG Export Plug-In . SVG Version: 6.00 Build 0)  -->
<!DOCTYPE svg PUBLIC "-//W3C//DTD SVG 1.1//EN" "http://www.w3.org/Graphics/SVG/1.1/DTD/svg11.dtd">
<svg version="1.1" id="Layer_1" xmlns="http://www.w3.org/2000/svg" xmlns:xlink="http://www.w3.org/1999/xlink" x="0px" y="0px"
	 width="409.92px" height="409.92px" viewBox="275.04 19.04 409.92 409.92" enable-background="new 275.04 19.04 409.92 409.92"
	 xml:space="preserve">
<circle fill="#FFFFFF" cx="483.62" cy="224" r="138"/>
<path fill="#61ABA9" d="M480,19.04c-113.017,0-204.96,91.943-204.96,204.96c0,113.017,91.943,204.96,204.96,204.96
	S684.96,337.017,684.96,224C684.96,110.983,593.017,19.04,480,19.04z M479.812,341.972c-13.096,0-23.709-10.612-23.709-23.708
	s10.613-23.708,23.709-23.708s23.707,10.612,23.707,23.708C503.52,331.358,492.907,341.972,479.812,341.972z M530.74,222.897
	c-13.477,10.031-27.879,18.181-30.696,36.651v11.917h-42.287v-14.094c1.873-27.266,14.717-39.473,27.247-49.186
	c12.217-9.705,22.866-16.903,22.866-33.83c0-19.111-10.019-28.192-26.616-28.192c-22.547,0-31.946,18.48-32.269,40.723h-46.046
	c0.944-44.791,30.388-77.37,76.114-77.37c59.203,0,78.006,36.337,78.006,60.444C557.061,200.354,544.217,212.571,530.74,222.897z"/>
</svg>
